<?xml version="1.0" encoding="UTF-8" standalone="no"?>
<!-- Created with Inkscape (http://www.inkscape.org/) -->

<svg
   width="107.99498mm"
   height="108.57801mm"
   viewBox="0 0 107.99498 108.57801"
   version="1.1"
   id="svg1"
   inkscape:version="1.3 (0e150ed, 2023-07-21)"
   sodipodi:docname="favicon.svg"
   inkscape:export-filename="favicon.svg"
   inkscape:export-xdpi="96"
   inkscape:export-ydpi="96"
   xmlns:inkscape="http://www.inkscape.org/namespaces/inkscape"
   xmlns:sodipodi="http://sodipodi.sourceforge.net/DTD/sodipodi-0.dtd"
   xmlns="http://www.w3.org/2000/svg"
   xmlns:svg="http://www.w3.org/2000/svg">
  <sodipodi:namedview
     id="namedview1"
     pagecolor="#ffffff"
     bordercolor="#000000"
     borderopacity="0.25"
     inkscape:showpageshadow="2"
     inkscape:pageopacity="0.0"
     inkscape:pagecheckerboard="0"
     inkscape:deskcolor="#d1d1d1"
     inkscape:document-units="mm"
     inkscape:zoom="0.5247124"
     inkscape:cx="398.31344"
     inkscape:cy="561.25984"
     inkscape:window-width="1536"
     inkscape:window-height="795"
     inkscape:window-x="0"
     inkscape:window-y="0"
     inkscape:window-maximized="1"
     inkscape:current-layer="layer1" />
  <defs
     id="defs1" />
  <g
     inkscape:label="Layer 1"
     inkscape:groupmode="layer"
     id="layer1"
     transform="translate(-44.907302,-89.278846)">
    <path
       id="rect1"
       style="fill:#09090b;stroke:#1a1a1a;stroke-width:0;stroke-opacity:0.0116935"
       d="M 44.907303,89.278847 H 152.90228 V 197.85686 H 44.907303 Z" />
    <path
       d="m 115.8088,122.52221 q 1.34697,0 1.9016,0.63386 0.59425,0.59426 0.59425,2.06008 0,1.46581 -0.59425,2.09968 -0.55463,0.59425 -1.9016,0.59425 h -2.41662 l -16.59942,16.04479 q 0.316934,-0.0396 0.950802,-0.0396 5.189798,0 8.279898,3.96168 1.22812,1.58467 2.13931,3.5655 0.9508,1.98084 2.06007,4.9521 0.15846,0.39616 0.79233,2.09968 0.67349,1.66391 1.30736,2.81279 1.54505,2.85241 3.5655,2.85241 h 1.10927 q 1.34697,0 1.90161,0.63387 0.59425,0.59425 0.59425,2.06007 0,1.46582 -0.59425,2.09969 -0.55464,0.59425 -1.90161,0.59425 h -3.24857 q -4.00129,0 -6.81408,-5.50673 -0.99042,-1.98084 -2.33739,-5.4275 -0.91119,-2.41662 -1.6639,-4.08052 -0.75272,-1.6639 -1.66391,-2.97126 -0.9508,-1.34697 -2.416619,-2.06007 -1.426203,-0.7131 -3.248574,-0.7131 -1.663903,0 -3.208956,0.59425 -1.545054,0.59425 -2.733556,1.74314 l -1.188503,1.14888 v 11.88503 h 6.417914 q 1.346969,0 1.901604,0.63387 0.594251,0.59425 0.594251,2.06007 0,1.46582 -0.594251,2.09969 -0.554635,0.59425 -1.901604,0.59425 H 78.093654 q -1.346969,0 -1.94122,-0.59425 -0.554635,-0.63387 -0.554635,-2.09969 0,-1.46582 0.554635,-2.06007 0.594251,-0.63387 1.94122,-0.63387 H 82.53073 V 127.9101 h -4.437076 q -1.346969,0 -1.94122,-0.59425 -0.554635,-0.63387 -0.554635,-2.09968 0,-1.46582 0.554635,-2.06008 0.594251,-0.63386 1.94122,-0.63386 h 14.024329 q 1.34697,0 1.901604,0.63386 0.594251,0.59426 0.594251,2.06008 0,1.46581 -0.594251,2.09968 -0.554634,0.59425 -1.901604,0.59425 h -3.644741 v 16.99559 L 105.82538,127.9101 h -2.85241 q -1.34697,0 -1.94122,-0.59425 -0.55463,-0.63387 -0.55463,-2.09968 0,-1.46582 0.55463,-2.06008 0.59425,-0.63386 1.94122,-0.63386 z"
       id="text1"
       style="font-size:81.1351px;font-family:'Courier Prime';-inkscape-font-specification:'Courier Prime, Normal';fill:#ffffff;stroke:#1a1a1a;stroke-width:0;stroke-opacity:0.0116935"
       aria-label="K" />
  </g>
</svg>
